/* XPM */
static char * matrixgl_xpm[] = {
"60 60 211 2",
"  	c None",
". 	c #1F4320",
"+ 	c #08270A",
"@ 	c #072608",
"# 	c #052A06",
"$ 	c #033707",
"% 	c #042803",
"& 	c #052304",
"* 	c #0C2E04",
"= 	c #032202",
"- 	c #001708",
"; 	c #072507",
"> 	c #0C2703",
", 	c #07210A",
"' 	c #062008",
") 	c #072C09",
"! 	c #062B07",
"~ 	c #052904",
"{ 	c #0D1704",
"] 	c #062406",
"^ 	c #051F07",
"/ 	c #011203",
"( 	c #070905",
"_ 	c #000A04",
": 	c #091003",
"< 	c #0A1D04",
"[ 	c #000200",
"} 	c #090100",
"| 	c #040702",
"1 	c #071C01",
"2 	c #011B06",
"3 	c #073B0B",
"4 	c #0D3D05",
"5 	c #09280C",
"6 	c #043005",
"7 	c #0D3606",
"8 	c #002608",
"9 	c #3F6F3B",
"0 	c #123715",
"a 	c #07340B",
"b 	c #092E0C",
"c 	c #002209",
"d 	c #0C2203",
"e 	c #0F2B08",
"f 	c #0D2F05",
"g 	c #092F0D",
"h 	c #0A1F0F",
"i 	c #091400",
"j 	c #1E271A",
"k 	c #132112",
"l 	c #051407",
"m 	c #060E00",
"n 	c #021304",
"o 	c #000104",
"p 	c #041406",
"q 	c #061804",
"r 	c #00230B",
"s 	c #0C1E06",
"t 	c #011D03",
"u 	c #081906",
"v 	c #041F05",
"w 	c #0D2906",
"x 	c #0A230D",
"y 	c #091C03",
"z 	c #194319",
"A 	c #01290C",
"B 	c #103513",
"C 	c #1D3A18",
"D 	c #0E3108",
"E 	c #041C09",
"F 	c #0B2102",
"G 	c #042702",
"H 	c #022100",
"I 	c #06110C",
"J 	c #242F25",
"K 	c #212C23",
"L 	c #020E08",
"M 	c #000306",
"N 	c #0E3007",
"O 	c #063209",
"P 	c #0E1C0C",
"Q 	c #1D351A",
"R 	c #2E4D2F",
"S 	c #09360D",
"T 	c #0E2407",
"U 	c #001101",
"V 	c #0A0C08",
"W 	c #070000",
"X 	c #082D0B",
"Y 	c #10220C",
"Z 	c #152315",
"` 	c #0A300E",
" .	c #061B00",
"..	c #0E1315",
"+.	c #0B3403",
"@.	c #041702",
"#.	c #023F07",
"$.	c #071509",
"%.	c #191514",
"&.	c #3D3F3C",
"*.	c #1B1C1A",
"=.	c #0B3B03",
"-.	c #071905",
";.	c #0C3504",
">.	c #07330A",
",.	c #191B18",
"'.	c #0D0604",
").	c #29302D",
"!.	c #202F20",
"~.	c #0F110D",
"{.	c #1D1F1C",
"].	c #040D00",
"^.	c #08220B",
"/.	c #032F04",
"(.	c #183C19",
"_.	c #30492C",
":.	c #0C2C10",
"<.	c #051A0E",
"[.	c #011600",
"}.	c #252724",
"|.	c #0B180D",
"1.	c #043808",
"2.	c #083C0C",
"3.	c #1B401D",
"4.	c #334730",
"5.	c #0C3210",
"6.	c #11230F",
"7.	c #002506",
"8.	c #242523",
"9.	c #112D0C",
"0.	c #021E04",
"a.	c #313330",
"b.	c #1C1D1B",
"c.	c #123D14",
"d.	c #245422",
"e.	c #11280D",
"f.	c #0B2D03",
"g.	c #0F3708",
"h.	c #1B451B",
"i.	c #345934",
"j.	c #0F2E13",
"k.	c #031601",
"l.	c #0D2804",
"m.	c #102C0B",
"n.	c #09160B",
"o.	c #1A3716",
"p.	c #113C13",
"q.	c #244825",
"r.	c #0B370E",
"s.	c #01230C",
"t.	c #2C2D2B",
"u.	c #0B2A0E",
"v.	c #131412",
"w.	c #333E34",
"x.	c #121411",
"y.	c #053909",
"z.	c #172A16",
"A.	c #0C0F0B",
"B.	c #10320A",
"C.	c #0B2602",
"D.	c #08350C",
"E.	c #063A0A",
"F.	c #19241B",
"G.	c #293829",
"H.	c #0A290D",
"I.	c #153917",
"J.	c #2D572C",
"K.	c #183413",
"L.	c #0B1206",
"M.	c #022D01",
"N.	c #0E3707",
"O.	c #1B4B1B",
"P.	c #0E3A11",
"Q.	c #142E18",
"R.	c #355F33",
"S.	c #154615",
"T.	c #0E2A07",
"U.	c #293D27",
"V.	c #2B4327",
"W.	c #2B6027",
"X.	c #0D3810",
"Y.	c #366B31",
"Z.	c #1F3A23",
"`.	c #1D421E",
" +	c #2C402A",
".+	c #143318",
"++	c #122F0E",
"@+	c #2B4F2B",
"#+	c #1E311C",
"$+	c #13180F",
"%+	c #091F00",
"&+	c #13350D",
"*+	c #003D05",
"=+	c #3D623D",
"-+	c #193B13",
";+	c #305530",
">+	c #023605",
",+	c #294D29",
"'+	c #07420B",
")+	c #21391D",
"!+	c #0E3E06",
"~+	c #0C3C04",
"{+	c #132B10",
"]+	c #162915",
"^+	c #254029",
"/+	c #000C05",
"(+	c #335C31",
"_+	c #13300F",
":+	c #204421",
"<+	c #1E481E",
"[+	c #1A1F17",
". + @ # $ % & * = - & ; > , ' ) ! ~ { ] ^ & , / ( ( _ _ _ : < [ } [ [ [ | _ : 1 2 / ' 3 4 ! 2 5 ' ] @ @ 6 & @ ! 7 ~ 6 8 ",
"9 0 ; ; a b , c , d e 2 c ; = f b g h ' i j k : _ - l : m _ n | _ [ [ o [ ( _ p p l q ' r s p t ' ' = ] @ u v w a @ x y ",
"z A = ] B C D ' 1 ) 6 / q E - F G H u E I J K L ( i / ( | M | o ( ( | M [ o M ( m p : l l n _ : L l 2 @ 8 ' 8 8 N D O ; ",
"G s P ' Q R S T ^ 8 , : L p : - s p _ U _ V I i U U ( _ M _ | | _ _ | [ [ W [ [ M ( L U L m : _ i E F ! X F S ] O g X ! ",
"6 G ' v Y Z ` @ ;  .n m ( U m I n L | _ ( } ( m ( L ( _ | | _ _ m | W [ | ..( [ [ | | | [ o M | q , @ +.% q ) E 6 * a ) ",
"b ; > v t @.#.X ] l / _ m L ( U : : o | _ | | [ _ _ _ [ ( $._ | L _ [ | %.&.*.W [ o o [ | [ | M ' v 5 ! E p d 2 f ` =.! ",
"2 -.@ ;.6 - >.* = -.E q : U _ _ _ [ W o o o [ o [ o M ,.h d - _ | _ | o M M M M W W [ o W W _ ( r H , y @ E ) 8 ! g a ! ",
"@.E E ; ) < e ; @ v d v n ( | | [ } [ [ [ [ o [ [ [ '.).!.2 F _ _ | o [ W } ~.{.M [ o [ [ [ m ].p u ~ ) d : f ^.X /.N f ",
"q 1 E s G 2 (._.:.' r <._ ( [ [ [ [ W [ [ [ [ [ [ M [ ~.I n [.| M [ [ [ o M %.}.V [ [ [ [ | U m n |.@ ` ) - f , ` 1.2.O ",
"] ^.' 1 T q 3.4.h h q | o [ M M M [ [ [ [ [ [ [ [ [ o ( : : _ [ [ [ o [ [ [ o M M [ [ [ M M _ | l p -.! O < a G +.a 1.b ",
"! A @ v @ q 5.6.7.^.@._ [ | '.{.8.( [ [ [ [ [ [ [ W [ | - : _ [ o [ [ [ [ [ [ W [ [ [ W [ } M [ n p 2 ; g c 5.r O O 7 ;.",
"9.% X r , E ) @.d 0.L [ o %.a.b.%.M [ [ [ [ [ [ [ [ [ [ [ _ ( o o W o o [ [ [ [ [ [ [ [ [ [ [ M : I @.c.d.e.f.] g.>.) # ",
"7 O X F , u S ] @ n ( ( M M %.M M [ [ [ [ [ [ [ o [ | [ M | [ [ [ [ [ [ [ [ [ [ [ [ [ [ o [ [ o _ : E h.i.j.y k.f.X b 2 ",
"! ~ f @ ! c ~ r q : | [ [ o o M W [ [ [ [ [ [ [ [ : _ M [ o o o [ [ [ [ [ [ [ [ [ [ [ [ [ [ W W [ _ -.] @ ; _ p ^.; b ; ",
"X A X > l.0.m.-.: _ [ [ W [ [ [ [ [ [ [ [ [ W [ _ u : [ [ W [ [ [ [ [ [ [ [ [ [ [ [ [ [ [ o [ [ o | L t v ^.$.u c & ) # ",
"# N 9.5 A - O [._ M [ o [ [ [ [ [ [ [ [ [ [ | p ] 8 [.| o [ [ [ [ [ [ [ [ [ [ [ [ [ [ [ [ [ o [ W [ ( l n.c ~ v > 8 * ! ",
"@ h.i.o.e u T L _ | [ [ [ [ [ [ [ [ [ [ o | { X f.^.-._ [ o [ [ [ [ [ [ [ [ [ [ [ [ [ [ [ [ o o o | ].U u @ >.r T E N ! ",
"l.p.q.r.l.& >._ W o o [ [ [ [ [ W [ [ [ | t 8 % & ~ s.l _ [ [ W o [ [ [ [ [ [ [ [ [ [ [ [ [ [ [ W [ | l 1 = >.F A % O ~ ",
"x ^.& ` g ' ' [ [ [ [ [ [ [ [ W [ [ o o _ > ! r.5 ! ^ ^ ^.< _ | [ [ o o [ [ [ [ [ [ ( t.b.[ [ [ [ o [ | ( m S d u.y ! ) ",
"^ ; 2 v G 2 < M [ [ [ [ [ [ [ [ $.I [ [ | -.' 6 ) e d F ' @ ^ p I | ( v.'.[ [ [ [ [ M *.%.o [ [ o [ o [ | - b ^.> 8 a ) ",
"' ; p n & y & [ [ [ [ [ [ o [ m ] -.( [ o | ( q @ r 8 ^ @.1 5 F E - E w.x.[ [ [ [ M o o W [ [ [ [ W o [ _ - >.! @ * y.@ ",
"v w = , ) & T | [ [ [ [ [ [ o - ) @ k.( [ o [ | U n u i I q = E y k.s z.A.[ [ [ [ W [ [ [ [ [ [ [ [ [ o ( | ) s.w >.>.G ",
"A S a ` b 2 @.| [ [ [ [ [ W W i ) ) 0.@.| o o W W | _ _ ( : l L : n.-.I ( | [ [ [ [ [ [ [ [ [ [ [ [ [ [ _ U d 2 b B.S ~ ",
"w ] G C.@ , ( o [ [ [ [ [ _ | n ) A , 8 @.[ W o [ | m _ o _ m _ U U l _ _ [ [ [ [ [ [ [ ( b.A.[ [ [ o _ : p c ; X 6 g.+ ",
"F 5 = # O ! E [ [ [ [ o o | ( U w ! * 5 -._ | _ | [ | [ o o : / s c % @.l L [ o W [ [ o %.t.%.o [ o o | m | ; G D.O O 6 ",
"0.! @ 5 D 8 & | [ [ [ [ [ _ _ ( = ) >.! ' k.U i _ _ ].| [ _ n |.x s s u t 1 : | [ [ [ o o M M [ | [ o [ _ ( E.) l.g ) ' ",
"-.A > ^.5 @ y [ [ [ [ o W [ _ ( 0.# 7 ~ ! ] 2 = 2 k.[._ ].m : F.G.<.- k.n.E  .p | W [ o M [ [ _ ( [ o | U : 3 ! >.6 b v ",
"s l.^ H.C :.2 | [ [ [ [ [ | m L -.s.~ X # @ G m.1 s.v { q 2 - k F.: l p [.t 7.^._ [ [ [ } M } | _ o [ M ( _ g.) D.B.N v ",
"v ! @ I.J.K.-.[ o [ [ [ [ [ / L L.@ @ ] 1 , ! a -.s c = ^ E p L _ / l -  .! M.@ / [ [ [ | _ | m : [ [ [ ( I N.f.c.O.P.% ",
"l ~ ~ s Q.s.-.| [ o [ o [ _ k.q : -.] ^.2 ^ A X ] <.u E / m ( | L i i { 2 T , < m | W o | _ m L / [ [ | _ [.6 E.d.R.S., ",
"n.^.2 1 1 8 ( : ( M W o o o m 2 I m s I.I.T.f.l.0.i : | o [ [ } | [ [ } _ ( _ _ n : [ [ | _ _ ( ( ( | [ L A D.O D ! g.G ",
"@.; & = v @ p - _ [ [ W [ W M [ U L I U.V.x c - : _ o W W [ W o o M [ o o | V n t s.( o | _ | _ _ _ _ ( m e 2.A X ) r.X ",
"E e u.% @ ; q q : _ [ o [ [ o o [ _ M I P s  .p ( [ o [ [ [ [ [ [ o [ [ [ [ : 0.% 6 i _ ( m _ m U n p _ [.` W.X.@ ~ N.) ",
"^ ) ;.X , & k.u - : o W o [ [ W [ [ [ o | p u 2 _ | [ [ [ [ [ [ [ [ [ o [ _ E 5 ; b 2 n L m / L ] s.2 n E g Y.c.A r g > ",
"& X a # 2 E & d c m _ [ o [ [ [ W o W o [ _ : n _ [ [ [ [ [ [ [ [ [ [ o [ : Z.`.T f u  .I : k.$.w ) E p s ` c.;.T./.3 ! ",
"u ; + s : { R.j.< p | | [ [ [ [ [ [ [ [ [ [ _ _ [ o [ [ [ [ [ [ [ [ [ [ V E  +V.] r.8 ] n - q ] 6 ] p u A 6 ~ w ! X 6 & ",
"8 w A 7.2 P 9 .+] c p | [ [ [ [ [ [ [ [ } ].m | [ [ [ [ [ [ [ [ [ [ W [ L =  .c M.b E 2 q @ @ B ++> 1 q ; ~ 2 ^.N.# ! 7.",
"D ! > @ -.c @ H l.l.2 L ( [ [ [ [ [ [ [ [ k.& q ( [ [ [ [ o [ o [ [ _ _ y ] 2 2 E ; y C.' A ! @+!.- - -.; X ' ! O ) B.v ",
"@ X ; @ < E l <.@ ; y p : ( [ [ W W W o [ - & 2 / : ( | [ [ [ | ( _ i n @ F y s 2 2 @.@ > g :.#+$+( L.n.] , * ! D A w v ",
"A ` ~ 5 , v n [.@ e 8 q c - : | | | [ | _  .7.' i 2 2 m L ( : / - v 8 y & @ ' v -.2 E A ; & n _ M ( / i u 2 2.X $ f 6 f.",
"] + ] 7.E v n.$.@ f ; p ] - p n _ ( _ L L ; b X = ' 2 p - L h 1 , @ D @ 0.F 2 , = ! ; X ; 0.( W [ | U p q 2 ) X 1.+ O f.",
"; ) O O F F & 2 v 5 ' _ n : $.u $._ p l @.g f.$ x T.2 i n 2 %+@ T.f.a ! E ; k.% H.g v M.> %+_ [ | M | / { @ # O 2.M.O ` ",
"0.u ; b & , C.X ! ^ T { ! ! 0.F 8 ! d n.p 7.^.&+^ > = q 2 0.g % 7.& ! v $.E ^ F = D @ O @ ] - _ i _ M L $.-.D f.) 3 *+@ ",
"< v & ! v k.^ 6 O = ' 2 A 6 A 8 >.E.P.g d D 0 =+-+` ! 0.^ c >.& ; ^ @ ; p ' H 7.@ >.^.g % 7.q m t l : @.= D ! A X > O ! ",
"u , ; g ] t ' * g ] d s ) D l.] f.D ;+q.A >+S ,+E.A ; F 2 & g @ ] ] l.% -.@ v @ > O c + @ f.^ _  .- L , 6 '+; * a @ O 8 ",
"r ; ^.@ s.d # b l.] ' l + 6 b s E A )+Q l.` ! ; b d -.- 1 ' S @ ^.8 A ; 1 @ u F A O %+d ; 8 ' m -.: i > ` N.! ! y.6 O &+",
"F X G X , ^ ~ ! 5 2 t y + ~ ) & ' ! E ^.~ b s.1 v v v < > > b E u ^ d E -.2 - v > a b ! % ~ ' : 2 - r +.! @ @ ] b > # z ",
"v G ^.;.= ^.@ , @ k.n  .y c ] >.* A t ~ +.D l.s.- = = s.S y.@  .: i @ , = ^.1 s ; E.A @ ; ~ & n k.= f.g ) g.' ; ] ^ * 5.",
"@ ^ A ` ^ p q # 5 ' ^.- s @ X X ! O n s.O 2.f X h , l.7.) !+r.; ^ v N P @., , s.> w ! D 2 2 ^ ; u s.! O + ! 5 l.b ) a * ",
"' t w 6 H $.^ ! B o.5 i A d w D.~+b p d ! 4 7 ; 0.b O ] ] *+;.8 ! A ` 2 s & = ; , X ; v i i L -.; @ ! u.% ` A @ M.@ a A ",
"2 q @ l.t 2 N > )+@+5.T ] q  .^.f +.X ^ A r.6 0.n & v n.n E ^ 1 ^ = /.^ u @ F 8 7.5 - @.n { |.E ] ' ! g l.> r e ;.! O > ",
"y @ N A  .t g ) :.{+) ) ! @ 2 -.' O 6 ^ F ~ ^ i m - @. .i [.F , F @ ! & c X h T X v : -.2 ]+^+:., < l.7 b b u h r ] D A ",
"~ ) e A > ^ ] f ! > a D.# ) ! G ] X E 2 2 d 2 : : h ^ & ^.- ^.s.v ^.) ] 0.G 2 > ; q 2 2 - Q.V.5 7.] O O G N H ' F , 6 ) ",
"5 # + T 2 k., s ` O y.+.X r.g X O g.-.' d ; p /+$.H F E &  .= s $.i ^ v d # t c p I ]  .n F 5 s ` @ 6 O ` ; ! H.X G B.) ",
"2.>.] - l : s.* ~ f.8 @ /.>.! s.2 ] - 0.A ! ! H p L / l h x X G ; G @ A 8 v : : U p l q - c A v ] u.f.; ~ b O .+)+D $ = ",
"=.O ; ' 0.2 @ ) ` ] e ! D ! X N.X X  .v @ N D.b -.@.^.& C.& >.@ 8 @ b d y n m U m 2  .1 q  .s ^ 0.! ! , E ~ w (.(+5.) ) ",
"$ @ * > t u ; ! ) s.)+(.>.g l.O 6 ] < ] s.) # ) 5 , f ! D G N l.X ! b i : L _ L : s E q E c t ^ % % ~ w ) O + g (.e ; @ ",
"D d A = ^ 1 6 6 b e @+R ) ;.X D e ^ s.N a S ) ; >.>.$ # X ! 2.A T.l.& _ _ U m i 2 ^ ; -.^._+T 2 >.O O a g.y.f.6 O ` B.; ",
"S D X = ^.E g.>+r.! r.j.b a b 3 b ! ] +.D B.) @ O 5.O X @ ] N.v E 2 - | ( _ /+k.q < v y #+4.Z : 5 :+<+2.4 ! A = G a *+; ",
"*++ ] > 8 u ` 2.*+O 3 T = ! +.>.4 !+8 S ~ S ) @ ' > , 2 s @.' $.n m n _ U l U @.- 2 E 7.h [+: o $. +q.O ; - : { @ >.'+! "};
